<?xml version="1.0" encoding="utf-8"?>
<!-- Generator: Adobe Illustrator 24.0.2, SVG Export Plug-In . SVG Version: 6.00 Build 0)  -->
<svg version="1.1" id="Layer_1" xmlns="http://www.w3.org/2000/svg" xmlns:xlink="http://www.w3.org/1999/xlink" x="0px" y="0px"
	 viewBox="0 0 1000 1000" style="enable-background:new 0 0 1000 1000;" xml:space="preserve">
<style type="text/css">
	.st0{fill:#F39200;}
</style>
<g>
	<circle class="st0" cx="828.82" cy="139.18" r="102.57"/>
	<path class="st0" d="M736.31,600.24c93.3,221.81,256.59,289.37,256.59,289.37S735.9,927.5,614.3,708.43L736.31,600.24z"/>
	<path class="st0" d="M337.41,174.58c0,0,459.54-69.52,476.64,257.13C831.47,764.57,7.11,981.52,7.11,981.52
		S610.34,694.89,568.53,427.3C526.72,159.71,337.41,174.58,337.41,174.58z"/>
</g>
<g>
	<polygon class="st0" points="-1172.93,369.82 -890.01,369.82 -996.84,509.06 	"/>
	<polygon class="st0" points="-1031.47,893.93 -820.96,801.85 -684.56,880.55 	"/>
	<polygon points="-821.53,591.2 -684.56,880.55 -684.56,880.55 -957.36,723.15 	"/>
	<circle class="st0" cx="-672.76" cy="257.6" r="86.4"/>
	<polygon points="-890.01,369.82 -1343.22,960.57 -957.36,723.15 -594.63,370.78 	"/>
</g>
</svg>
