<?xml version="1.0" encoding="utf-8"?>
<!-- Generator: Adobe Illustrator 24.0.2, SVG Export Plug-In . SVG Version: 6.00 Build 0)  -->
<svg version="1.1" id="Layer_1" xmlns="http://www.w3.org/2000/svg" xmlns:xlink="http://www.w3.org/1999/xlink" x="0px" y="0px"
	 viewBox="0 0 1000 500" style="enable-background:new 0 0 1000 500;" xml:space="preserve">
<style type="text/css">
	.st0{fill:#FFFFFF;}
</style>
<g>
	<g>
		<path class="st0" d="M488.74,230.88V341.6c0,5.8,0.26,10.48,0.77,14.06c0.51,3.58,1.32,6.39,2.43,8.44
			c1.11,2.05,2.69,3.45,4.73,4.22c2.05,0.77,4.6,1.15,7.67,1.15h39.64V230.88h39.64v163.91h-92.06c-7.67,0-14.15-0.81-19.43-2.43
			c-5.29-1.62-9.63-4.35-13.04-8.18c-3.41-3.84-5.88-8.99-7.42-15.47c-1.53-6.48-2.3-14.58-2.3-24.29V230.88H488.74z"/>
		<path class="st0" d="M697.14,230.88c7.67,0,14.19,0.77,19.56,2.3c5.37,1.53,9.72,4.22,13.04,8.06c3.32,3.83,5.75,9.04,7.29,15.6
			c1.54,6.57,2.3,14.79,2.3,24.68v113.28h-39.12V284.32c0-5.45-0.26-9.97-0.77-13.55c-0.51-3.58-1.41-6.39-2.69-8.44
			c-1.28-2.05-2.9-3.49-4.86-4.35c-1.96-0.85-4.31-1.28-7.03-1.28h-39.38v138.08h-39.63V230.88H697.14z"/>
		<path class="st0" d="M812.5,231.26v163.91h-46.79V231.26H812.5z M812.5,179.09v31.71h-46.79v-31.71H812.5z"/>
		<path class="st0" d="M879.97,230.88l32.99,56l34.78-56h37.59l-53.19,79.78l52.93,84.13h-41.68l-31.45-56.77l-31.2,56.77h-40.4
			l51.65-83.11l-51.91-80.8H879.97z"/>
	</g>
	<g>
		<circle class="st0" cx="414.74" cy="70.66" r="50.09"/>
		<path class="st0" d="M369.56,295.83c45.56,108.32,125.3,141.32,125.3,141.32s-125.5,18.5-184.89-88.49L369.56,295.83z"/>
		<path class="st0" d="M174.75,87.95c0,0,224.42-33.95,232.77,125.57c8.51,162.55-394.07,268.5-394.07,268.5
			s294.59-139.98,274.17-270.66C267.2,80.69,174.75,87.95,174.75,87.95z"/>
	</g>
</g>
</svg>
